<svg width="64" height="13" viewBox="0 0 64 13" fill="none" xmlns="http://www.w3.org/2000/svg">
<path d="M0.727273 11.44L0.363637 11.44L2.91362e-07 11.44L4.37043e-07 10.66L5.82724e-07 9.88L0.727273 9.88L1.45455 9.88L1.45455 10.4L1.45455 10.92L1.81818 10.92L2.18182 10.92L2.18182 11.18L2.18182 11.44L2.54545 11.44L2.90909 11.44L2.90909 11.7L2.90909 11.96L5.45455 11.96L8 11.96L8 11.7L8 11.44L8.36364 11.44L8.72727 11.44L8.72727 10.4L8.72727 9.36L8.36364 9.36L8 9.36L8 9.1L8 8.84L6.90909 8.84L5.81818 8.84L5.81818 8.58L5.81818 8.32L4.36364 8.32L2.90909 8.32L2.90909 8.06L2.90909 7.8L2.18182 7.8L1.45455 7.8L1.45455 7.54L1.45455 7.28L1.09091 7.28L0.727274 7.28L0.727274 7.02L0.727274 6.76L0.363638 6.76L1.16545e-06 6.76L1.35969e-06 5.72L1.55393e-06 4.68L0.363638 4.68L0.727274 4.68L0.727274 4.42L0.727274 4.16L1.09091 4.16L1.45455 4.16L1.45455 3.9L1.45455 3.64L2.18182 3.64L2.90909 3.64L2.90909 3.38L2.90909 3.12L5.09091 3.12L7.27273 3.12L7.27273 3.38L7.27273 3.64L8 3.64L8.72727 3.64L8.72727 3.9L8.72727 4.16L9.09091 4.16L9.45455 4.16L9.45455 4.42L9.45455 4.68L9.81818 4.68L10.1818 4.68L10.1818 5.46L10.1818 6.24L9.45455 6.24L8.72727 6.24L8.72727 5.98L8.72727 5.72L8.36364 5.72L8 5.72L8 5.2L8 4.68L7.27273 4.68L6.54546 4.68L6.54546 4.42L6.54546 4.16L5.09091 4.16L3.63637 4.16L3.63637 4.42L3.63637 4.68L2.90909 4.68L2.18182 4.68L2.18182 5.72L2.18182 6.76L2.90909 6.76L3.63636 6.76L3.63636 7.02L3.63636 7.28L5.09091 7.28L6.54546 7.28L6.54546 7.54L6.54546 7.8L7.63636 7.8L8.72727 7.8L8.72727 8.06L8.72727 8.32L9.45455 8.32L10.1818 8.32L10.1818 8.84L10.1818 9.36L10.5455 9.36L10.9091 9.36L10.9091 10.4L10.9091 11.44L10.5455 11.44L10.1818 11.44L10.1818 11.7L10.1818 11.96L9.81818 11.96L9.45455 11.96L9.45455 12.22L9.45455 12.48L9.09091 12.48L8.72727 12.48L8.72727 12.74L8.72727 13L5.45455 13L2.18182 13L2.18182 12.74L2.18182 12.48L1.81818 12.48L1.45455 12.48L1.45455 12.22L1.45455 11.96L1.09091 11.96L0.727273 11.96L0.727273 11.7L0.727273 11.44Z" fill="#0034EB"/>
<path d="M15.2727 1.56L13.8182 1.56L12.3636 1.56L12.3636 0.780002L12.3636 2.30916e-06L13.8182 2.58083e-06L15.2727 2.85249e-06L15.2727 0.780003L15.2727 1.56Z" fill="#0034EB"/>
<path d="M14.5455 13L13.8182 13L13.0909 13L13.0909 8.32L13.0909 3.64L13.8182 3.64L14.5455 3.64L14.5455 8.32L14.5455 13Z" fill="#0034EB"/>
<path d="M19.6364 13L18.5455 13L17.4545 13L17.4545 8.32L17.4545 3.64L18.5455 3.64L19.6364 3.64L19.6364 3.9L19.6364 4.16L20 4.16L20.3636 4.16L20.3636 3.9L20.3636 3.64L21.0909 3.64L21.8182 3.64L21.8182 3.38L21.8182 3.12L23.6364 3.12001L25.4545 3.12001L25.4545 3.38L25.4545 3.64001L25.8182 3.64001L26.1818 3.64001L26.1818 3.90001L26.1818 4.16001L26.5455 4.16001L26.9091 4.16001L26.9091 4.42001L26.9091 4.68L27.2727 4.68L27.6364 4.68L27.6364 4.42001L27.6364 4.16001L28 4.16001L28.3636 4.16001L28.3636 3.90001L28.3636 3.64001L29.0909 3.64001L29.8182 3.64001L29.8182 3.38001L29.8182 3.12001L31.6364 3.12001L33.4545 3.12001L33.4545 3.38001L33.4545 3.64001L33.8182 3.64001L34.1818 3.64001L34.1818 3.90001L34.1818 4.16001L34.5455 4.16001L34.9091 4.16001L34.9091 4.42001L34.9091 4.68001L35.2727 4.68001L35.6364 4.68001L35.6364 8.84001L35.6364 13L34.9091 13L34.1818 13L34.1818 9.62001L34.1818 6.24001L33.8182 6.24001L33.4545 6.24001L33.4545 5.46001L33.4545 4.68001L33.0909 4.68001L32.7273 4.68001L32.7273 4.42001L32.7273 4.16001L31.2727 4.16001L29.8182 4.16001L29.8182 4.42001L29.8182 4.68L29.0909 4.68L28.3636 4.68L28.3636 5.20001L28.3636 5.72001L28 5.72001L27.6364 5.72001L27.6364 9.36001L27.6364 13L26.5455 13L25.4545 13L25.4545 8.84L25.4545 4.68L25.0909 4.68L24.7273 4.68L24.7273 4.42001L24.7273 4.16001L23.2727 4.16001L21.8182 4.16L21.8182 4.42001L21.8182 4.68L21.0909 4.68L20.3636 4.68L20.3636 5.2L20.3636 5.72L20 5.72L19.6364 5.72L19.6364 9.36L19.6364 13Z" fill="#0034EB"/>
<path d="M54.5455 13L53.8182 13L53.0909 13L53.0909 8.32001L53.0909 3.64001L53.8182 3.64001L54.5455 3.64001L54.5455 4.16001L54.5455 4.68001L54.9091 4.68001L55.2727 4.68001L55.2727 4.42001L55.2727 4.16001L55.6364 4.16001L56 4.16001L56 3.90001L56 3.64001L56.7273 3.64001L57.4545 3.64001L57.4545 3.38001L57.4545 3.12001L59.2727 3.12001L61.0909 3.12001L61.0909 3.38001L61.0909 3.64001L61.8182 3.64001L62.5455 3.64001L62.5455 3.90001L62.5455 4.16001L62.9091 4.16001L63.2727 4.16001L63.2727 5.20001L63.2727 6.24001L63.6364 6.24001L64 6.24001L64 9.62001L64 13L62.9091 13L61.8182 13L61.8182 9.10001L61.8182 5.20001L61.4545 5.20001L61.0909 5.20001L61.0909 4.94001L61.0909 4.68001L60.7273 4.68001L60.3636 4.68001L60.3636 4.42001L60.3636 4.16001L58.9091 4.16001L57.4545 4.16001L57.4545 4.42001L57.4545 4.68001L56.7273 4.68001L56 4.68001L56 4.94001L56 5.20001L55.6364 5.20001L55.2727 5.20001L55.2727 5.72001L55.2727 6.24001L54.9091 6.24001L54.5455 6.24001L54.5455 9.62001L54.5455 13Z" fill="#0034EB"/>
<path fill-rule="evenodd" clip-rule="evenodd" d="M38.1818 10.4L38.5455 10.4L38.5455 10.92L38.5455 11.44L38.9091 11.44L39.2727 11.44L39.2727 11.7L39.2727 11.96L39.6364 11.96L40 11.96L40 12.22L40 12.48L40.7273 12.48L41.4545 12.48L41.4545 12.74L41.4545 13L44.3636 13L47.2727 13L47.2727 12.74L47.2727 12.48L47.6364 12.48L48 12.48L48 12.22L48 11.96L48.3636 11.96L48.7273 11.96L48.7273 11.7L48.7273 11.44L49.0909 11.44L49.4545 11.44L49.4545 11.18L49.4545 10.92L49.8182 10.92L50.1818 10.92L50.1818 9.88001L50.1818 8.84001L50.5455 8.84001L50.9091 8.84001L50.9091 8.06001L50.9091 7.28001L50.5455 7.28001L50.1818 7.28001L50.1818 6.50001L50.1818 5.72001L49.8182 5.72001L49.4545 5.72001L49.4545 5.20001L49.4545 4.68001L49.0909 4.68001L48.7273 4.68001L48.7273 4.42001L48.7273 4.16001L48.3636 4.16001L48 4.16001L48 3.90001L48 3.64001L47.2727 3.64001L46.5455 3.64001L46.5455 3.38001L46.5455 3.12001L44.3636 3.12001L42.1818 3.12001L42.1818 3.38001L42.1818 3.64001L41.4545 3.64001L40.7273 3.64001L40.7273 3.90001L40.7273 4.16001L40 4.16001L39.2727 4.16001L39.2727 4.68001L39.2727 5.20001L38.9091 5.20001L38.5455 5.20001L38.5455 5.72001L38.5455 6.24001L38.1818 6.24001L37.8182 6.24001L37.8182 8.32001L37.8182 10.4L38.1818 10.4ZM40 7.28001L39.6364 7.28001L39.2727 7.28001L39.2727 8.06001L39.2727 8.84001L39.6364 8.84001L40 8.84001L40 9.62001L40 10.4L40.3636 10.4L40.7273 10.4L40.7273 10.92L40.7273 11.44L41.0909 11.44L41.4545 11.44L41.4545 11.7L41.4545 11.96L44 11.96L46.5455 11.96L46.5455 11.7L46.5455 11.44L46.9091 11.44L47.2727 11.44L47.2727 11.18L47.2727 10.92L47.6364 10.92L48 10.92L48 10.4L48 9.88001L48.3636 9.88001L48.7273 9.88001L48.7273 8.06001L48.7273 6.24001L48.3636 6.24001L48 6.24001L48 5.72001L48 5.20001L47.6364 5.20001L47.2727 5.20001L47.2727 4.94001L47.2727 4.68001L46.5455 4.68001L45.8182 4.68001L45.8182 4.42001L45.8182 4.16001L44.3636 4.16001L42.9091 4.16001L42.9091 4.42001L42.9091 4.68001L42.1818 4.68001L41.4545 4.68001L41.4545 4.94001L41.4545 5.20001L41.0909 5.20001L40.7273 5.20001L40.7273 5.46001L40.7273 5.72001L40.3636 5.72001L40 5.72001L40 6.50001L40 7.28001Z" fill="#0034EB"/>
</svg>
