<svg width="65" height="27" viewBox="0 0 65 27" fill="none" xmlns="http://www.w3.org/2000/svg">
<path fill-rule="evenodd" clip-rule="evenodd" d="M7.36588 25.4112L12.2438 24.0447L12.1022 23.5391L11.9605 23.0334L8.12786 24.1071L4.2952 25.1808L4.22438 24.928L4.15355 24.6752L4.50198 24.5776L4.8504 24.48L4.77957 24.2272L4.70875 23.9743L5.05717 23.8767L5.4056 23.7791L5.26395 23.2735L5.1223 22.7679L5.47072 22.6703L5.81915 22.5726L5.74832 22.3198L5.6775 22.067L6.02592 21.9694L6.37434 21.8718L6.30352 21.619L6.23269 21.3662L6.58112 21.2686L6.92955 21.171L6.7879 20.6653L6.64625 20.1597L6.99467 20.0621L7.3431 19.9645L7.27227 19.7117L7.20145 19.4588L7.54987 19.3612L7.89829 19.2636L7.82747 19.0108L7.75664 18.758L8.10507 18.6604L8.4535 18.5628L8.38267 18.31L8.31185 18.0572L8.66027 17.9595L9.00869 17.8619L8.86705 17.3563L8.7254 16.8507L9.07382 16.7531L9.42224 16.6555L9.35142 16.4026L9.28059 16.1498L9.62902 16.0522L9.97744 15.9546L9.83579 15.449L9.69414 14.9434L5.16464 16.2123L0.635131 17.4812L0.776779 17.9868L0.918427 18.4924L4.05424 17.6139L7.19005 16.7355L7.26088 16.9883L7.3317 17.2411L6.98328 17.3387L6.63485 17.4363L6.7765 17.942L6.91815 18.4476L6.56973 18.5452L6.2213 18.6428L6.29213 18.8956L6.36295 19.1484L6.01453 19.246L5.6661 19.3436L5.73693 19.5965L5.80775 19.8493L5.45933 19.9469L5.1109 20.0445L5.25255 20.5501L5.3942 21.0558L5.04578 21.1534L4.69735 21.251L4.76818 21.5038L4.839 21.7566L4.49058 21.8542L4.14216 21.9518L4.21298 22.2046L4.2838 22.4574L3.93538 22.5551L3.58696 22.6527L3.72861 23.1583L3.87026 23.6639L3.52183 23.7615L3.1734 23.8591L3.24423 24.112L3.31505 24.3648L2.96663 24.4624L2.61821 24.56L2.68903 24.8128L2.75986 25.0656L2.41143 25.1632L2.06301 25.2608L2.27548 26.0193L2.48795 26.7777L7.36588 25.4112ZM15.3796 23.1662L16.4249 22.8734L15.4334 19.334L14.4418 15.7946L14.7902 15.697L15.1387 15.5994L15.0678 15.3465L14.997 15.0937L15.3454 14.9961L15.6939 14.8985L15.623 14.6457L15.5522 14.3929L16.2491 14.1977L16.9459 14.0025L16.8751 13.7496L16.8043 13.4968L17.8495 13.204L18.8948 12.9112L18.9656 13.164L19.0365 13.4168L19.7333 13.2216L20.4301 13.0264L20.5718 13.532L20.7134 14.0376L21.0619 13.94L21.4103 13.8424L22.4018 17.3818L23.3934 20.9212L24.0902 20.726L24.7871 20.5308L23.6539 16.4858L22.5207 12.4407L22.1723 12.5383L21.8238 12.6359L21.753 12.3831L21.6822 12.1303L21.3338 12.2279L20.9853 12.3255L20.9145 12.0727L20.8437 11.8199L20.4953 11.9175L20.1469 12.0151L20.076 11.7623L20.0052 11.5095L17.9147 12.0951L15.8241 12.6808L15.8949 12.9336L15.9658 13.1864L15.2689 13.3816L14.5721 13.5768L14.6429 13.8297L14.7137 14.0825L14.3653 14.1801L14.0169 14.2777L13.4237 12.1604L12.8306 10.043L11.7853 10.3359L10.74 10.6287L12.5372 17.0439L14.3344 23.4591L15.3796 23.1662ZM26.8011 18.3307L27.1495 18.2331L27.2912 18.7387L27.4328 19.2443L28.1297 19.0491L28.8265 18.8539L28.8973 19.1067L28.9681 19.3595L31.4071 18.6763L33.8461 17.993L33.7753 17.7402L33.7044 17.4874L34.4013 17.2922L35.0981 17.0969L35.0273 16.8441L34.9565 16.5913L35.3049 16.4937L35.6533 16.3961L35.7241 16.6489L35.795 16.9017L36.1434 16.8041L36.4918 16.7065L36.5626 16.9593L36.6335 17.2121L37.6787 16.9193L38.724 16.6265L38.5824 16.1209L38.4407 15.6152L37.7439 15.8104L37.047 16.0057L36.0555 12.4662L35.0639 8.92683L34.7155 9.02444L34.3671 9.12205L34.2963 8.86924L34.2254 8.61642L33.877 8.71403L33.5286 8.81164L33.4578 8.55882L33.3869 8.306L33.0385 8.40361L32.6901 8.50122L32.6193 8.2484L32.5485 7.99559L30.1095 8.67885L27.6705 9.3621L27.7413 9.61492L27.8122 9.86773L27.1153 10.0629L26.4185 10.2582L26.4893 10.511L26.5601 10.7638L26.2117 10.8614L25.8633 10.959L26.0049 11.4646L26.1466 11.9703L25.7982 12.0679L25.4497 12.1655L25.5914 12.6711L25.733 13.1767L26.7783 12.8839L27.8236 12.5911L27.6111 11.8327L27.3986 11.0742L28.0955 10.879L28.7923 10.6838L28.7215 10.431L28.6507 10.1781L30.3928 9.69011L32.1349 9.20207L32.2057 9.45488L32.2766 9.7077L32.625 9.61009L32.9734 9.51248L33.0442 9.7653L33.115 10.0181L33.4635 9.9205L33.8119 9.8229L33.9535 10.3285L34.0952 10.8342L33.7468 10.9318L33.3983 11.0294L33.4692 11.2822L33.54 11.535L33.1916 11.6326L32.8431 11.7302L32.914 11.983L32.9848 12.2358L31.2427 12.7239L29.5006 13.2119L29.5714 13.4647L29.6422 13.7176L28.5969 14.0104L27.5517 14.3032L27.6225 14.556L27.6933 14.8088L27.3449 14.9064L26.9965 15.0041L27.0673 15.2569L27.1381 15.5097L26.7897 15.6073L26.4413 15.7049L26.5121 15.9577L26.5829 16.2105L26.2345 16.3081L25.8861 16.4057L26.1694 17.417L26.4527 18.4283L26.8011 18.3307ZM28.325 15.7225L28.6735 15.6249L28.6026 15.3721L28.5318 15.1193L29.5771 14.8264L30.6224 14.5336L30.5515 14.2808L30.4807 14.028L31.8744 13.6375L33.2681 13.2471L33.1973 12.9943L33.1264 12.7415L33.8233 12.5463L34.5201 12.351L34.8743 13.6151L35.2284 14.8792L34.88 14.9768L34.5315 15.0744L34.6024 15.3272L34.6732 15.58L34.3248 15.6777L33.9763 15.7753L34.0472 16.0281L34.118 16.2809L33.7696 16.3785L33.4211 16.4761L33.492 16.7289L33.5628 16.9817L31.4722 17.5674L29.3817 18.153L29.3109 17.9002L29.24 17.6474L28.8916 17.745L28.5432 17.8426L28.2599 16.8314L27.9766 15.8201L28.325 15.7225ZM41.163 15.9432L42.2082 15.6504L41.2167 12.111L40.2252 8.57158L40.5736 8.47397L40.922 8.37636L40.8512 8.12355L40.7804 7.87073L41.1288 7.77313L41.4772 7.67552L41.4064 7.4227L41.3356 7.16989L42.0324 6.97467L42.7293 6.77945L42.6584 6.52664L42.5876 6.27382L43.6329 5.981L44.6782 5.68818L44.749 5.94099L44.8198 6.19381L45.5166 5.99859L46.2135 5.80337L46.3551 6.309L46.4968 6.81463L46.8452 6.71703L47.1936 6.61942L48.1852 10.1588L49.1767 13.6982L49.8736 13.503L50.5704 13.3078L49.4372 9.26277L48.304 5.21773L47.9556 5.31533L47.6072 5.41294L47.5364 5.16013L47.4655 4.90731L47.1171 5.00492L46.7687 5.10253L46.6979 4.84971L46.6271 4.5969L46.2786 4.6945L45.9302 4.79211L45.8594 4.5393L45.7886 4.28648L43.698 4.87213L41.6075 5.45778L41.6783 5.71059L41.7491 5.96341L41.0523 6.15863L40.3554 6.35384L40.4263 6.60666L40.4971 6.85947L40.1487 6.95708L39.8002 7.05469L39.7294 6.80187L39.6586 6.54906L38.6133 6.84188L37.568 7.13471L38.8429 11.6854L40.1177 16.2361L41.163 15.9432ZM52.0178 9.08514L52.3663 8.98753L52.5079 9.49317L52.6496 9.9988L52.998 9.90119L53.3464 9.80358L53.4881 10.3092L53.6297 10.8148L53.9781 10.7172L54.3266 10.6196L54.3974 10.8724L54.4682 11.1253L55.165 10.93L55.8619 10.7348L55.9327 10.9876L56.0035 11.2405L58.0941 10.6548L60.1846 10.0692L60.1138 9.81634L60.043 9.56353L60.7398 9.36831L61.4367 9.17309L61.3658 8.92028L61.295 8.66746L61.6434 8.56986L61.9919 8.47225L61.921 8.21943L61.8502 7.96662L62.1986 7.86901L62.5471 7.7714L62.8304 8.78266L63.1137 9.79392L62.7652 9.89153L62.4168 9.98914L62.6293 10.7476L62.8418 11.506L62.1449 11.7012L61.4481 11.8965L61.5189 12.1493L61.5897 12.4021L59.1507 13.0853L56.7118 13.7686L56.641 13.5158L56.5701 13.263L56.2217 13.3606L55.8733 13.4582L55.8025 13.2054L55.7316 12.9526L55.3832 13.0502L55.0348 13.1478L54.964 12.895L54.8931 12.6421L54.1963 12.8374L53.4995 13.0326L53.6411 13.5382L53.7827 14.0438L54.1312 13.9462L54.4796 13.8486L54.6212 14.3543L54.7629 14.8599L55.4597 14.6647L56.1566 14.4695L56.2274 14.7223L56.2982 14.9751L57.6919 14.5847L59.0856 14.1942L59.1564 14.447L59.2273 14.6998L59.5757 14.6022L59.9241 14.5046L59.8533 14.2518L59.7825 13.999L61.1762 13.6086L62.5699 13.2181L62.499 12.9653L62.4282 12.7125L63.1251 12.5173L63.8219 12.3221L63.7511 12.0693L63.6803 11.8164L64.0287 11.7188L64.3771 11.6212L64.2355 11.1156L64.0938 10.61L64.2462 10.5673L64.3987 10.5246L62.9822 5.46825L61.5657 0.41195L61.0649 0.552262L60.564 0.692575L60.7056 1.19821L60.8473 1.70384L60.4989 1.80144L60.1504 1.89905L60.0796 1.64624L60.0088 1.39342L59.6604 1.49103L59.3119 1.58864L59.2411 1.33582L59.1703 1.08301L58.4735 1.27822L57.7766 1.47344L57.7058 1.22062L57.635 0.967809L55.8928 1.45585L54.1507 1.94389L54.2215 2.1967L54.2924 2.44952L53.5955 2.64474L52.8987 2.83995L52.9695 3.09277L53.0403 3.34558L52.3435 3.5408L51.6466 3.73601L51.7883 4.24164L51.9299 4.74728L51.5815 4.84488L51.2331 4.94249L51.3747 5.44812L51.5164 5.95375L51.1679 6.05136L50.8195 6.14897L51.2445 7.66586L51.6694 9.18275L52.0178 9.08514ZM53.1168 4.96008L53.4653 4.86247L53.3944 4.60966L53.3236 4.35684L53.672 4.25924L54.0205 4.16163L53.9496 3.90881L53.8788 3.656L54.5757 3.46078L55.2725 3.26556L55.2017 3.01275L55.1309 2.75994L56.5246 2.3695L57.9183 1.97907L57.9891 2.23189L58.0599 2.4847L58.4083 2.38709L58.7567 2.28948L58.8276 2.5423L58.8984 2.79511L59.2468 2.69751L59.5952 2.5999L59.6661 2.85271L59.7369 3.10553L60.0853 3.00792L60.4337 2.91031L60.6462 3.66876L60.8587 4.4272L61.2071 4.3296L61.5555 4.23199L61.6972 4.73762L61.8388 5.24325L61.4904 5.34086L61.142 5.43846L61.3544 6.19691L61.5669 6.95536L61.2185 7.05296L60.8701 7.15057L61.0117 7.6562L61.1534 8.16183L60.4565 8.35705L59.7597 8.55226L59.8305 8.80508L59.9013 9.0579L58.1592 9.54594L56.4171 10.034L56.3463 9.78116L56.2754 9.52835L55.927 9.62595L55.5786 9.72356L55.5078 9.47075L55.4369 9.21793L55.0885 9.31554L54.7401 9.41315L54.6693 9.16033L54.5985 8.90752L54.25 9.00513L53.9016 9.10273L53.335 7.08021L52.7684 5.05769L53.1168 4.96008Z" fill="#0034EB"/>
</svg>
